<?xml version="1.0" encoding="utf-8"?>
<!-- Generator: Adobe Illustrator 23.0.3, SVG Export Plug-In . SVG Version: 6.00 Build 0)  -->
<svg version="1.1" id="Capa_1" xmlns="http://www.w3.org/2000/svg" xmlns:xlink="http://www.w3.org/1999/xlink" x="0px" y="0px"
	 viewBox="0 0 511.6 511.6" style="enable-background:new 0 0 511.6 511.6;" xml:space="preserve">
<style type="text/css">
	.st0{fill:url(#SVGID_1_);}
</style>
<g>
	<linearGradient id="SVGID_1_" gradientUnits="userSpaceOnUse" x1="0" y1="255.8085" x2="511.616" y2="255.8085">
		<stop  offset="0" style="stop-color:#1245C6"/>
		<stop  offset="1" style="stop-color:#9909B7"/>
	</linearGradient>
	<path class="st0" d="M509.3,136.6c-1.5-11-3.8-22.8-6.9-35.4c-3-12.6-7.6-23.2-13.6-32c-6-8.8-12.7-13.1-20.1-13.1
		c-0.9-3.7-5-3.3-12.4,1.3c-7.4,4.6-10.9,6.1-10.4,4.6c0.5-1.5-2.1,0.4-7.7,5.7c-5.6,5.3-8.4,8-8.4,8l-8.4,8.4
		c-7.4,7-18.2,12.4-32.4,16.1c-14.2,3.7-29.7,6-46.7,6.9c-16.9,0.9-33.9,1.4-51,1.7c-17,0.3-34.1,1.1-51.2,2.6
		c-17.1,1.4-30.9,3.9-41.4,7.3c-20.7,6.9-40.2,15.9-58.2,27.3c-18.1,11.3-34.3,24.6-48.7,39.7c-14.4,15.1-25.7,32.7-34,52.7
		c-8.3,20-12.4,40.9-12.4,62.8c0,10.1,0.9,20,2.6,29.7c0.4,1.9,1.9,6.1,4.6,12.6c2.7,6.5,4,10.1,4,10.9c0,3.6-3,8.2-8.9,13.7
		c-5.9,5.5-12.4,10.9-19.4,16c-7,5.1-13.5,11.4-19.4,18.7C3,409.9,0,416.9,0,423.5c0,1.3,0.1,2.6,0.4,3.9c0.3,1.2,0.6,2.1,0.9,2.7
		c0.3,0.6,0.8,1.5,1.6,2.9c0.8,1.3,1.3,2.4,1.7,3.1c3.2,5.5,5.8,9.5,7.7,12c1.9,2.5,4.9,4.8,8.9,6.9c4,2.1,8.9,3.1,14.6,3.1
		c5.5,0,11.2-3,17.1-9.1c5.9-6.1,10.9-12.8,15-20c4.1-7.2,8.4-13.9,12.8-20c4.5-6.1,8.2-9.1,11.3-9.1c4.4,0,13.5,3.5,27.4,10.6
		c13.9,7,22.3,11,25.1,12c26.3,8.9,53.5,13.4,81.7,13.4c42.6,0,84.3-10.3,125.1-30.8c41.7-20.7,75.7-46.2,102.1-76.5
		c26.4-30.3,43.9-66.7,52.7-109.4c3.8-18.7,5.7-37,5.7-55.1C511.6,156.8,510.9,147.6,509.3,136.6z M360,233.4
		c-3.6,3.6-7.9,5.4-12.9,5.4c-34.6,0-64.5,4.9-89.5,14.8c-25,9.9-50.6,26.6-76.7,50.2c-3.8,3.6-10.2,9.9-19.1,18.8
		c-8.9,8.9-16,15.7-21.1,20.3c-4,3.6-8.3,5.4-12.8,5.4c-5,0-9.2-1.8-12.9-5.4c-3.6-3.6-5.4-7.9-5.4-12.8c0-4.6,1.8-8.8,5.4-12.8
		c23.2-25.7,45.6-46.6,67.2-62.7c21.6-16.1,46.3-28.8,74.1-38.3c27.8-9.4,58-14.1,90.8-14.1c4.9,0,9.2,1.8,12.9,5.4
		c3.6,3.6,5.4,7.9,5.4,12.9C365.4,225.5,363.6,229.7,360,233.4z"/>
</g>
</svg>
